<mxfile host="app.diagrams.net" modified="2024-07-22T14:25:48.327Z" agent="Mozilla/5.0 (Macintosh; Intel Mac OS X 10_15_7) AppleWebKit/605.1.15 (KHTML, like Gecko) Version/17.5 Safari/605.1.15" version="24.7.1" etag="Nvo451YUnyk7OMeg9nfO" type="github">
  <diagram name="ページ1" id="yVKTcCpE-R2Yeamkb9c8">
    <mxGraphModel>
      <root>
        <mxCell id="0" />
        <mxCell id="1" parent="0" />
      </root>
    </mxGraphModel>
  </diagram>
</mxfile>
